<svg width="42" height="60" viewBox="0 0 42 60" fill="none" xmlns="http://www.w3.org/2000/svg">
<path d="M21 0C15.4305 0 10.089 2.21249 6.15076 6.15076C2.21249 10.089 0 15.4305 0 21C0 28.14 3.57 34.41 9 38.22V45C9 45.7956 9.31607 46.5587 9.87868 47.1213C10.4413 47.6839 11.2044 48 12 48H30C30.7956 48 31.5587 47.6839 32.1213 47.1213C32.6839 46.5587 33 45.7956 33 45V38.22C38.43 34.41 42 28.14 42 21C42 15.4305 39.7875 10.089 35.8492 6.15076C31.911 2.21249 26.5695 0 21 0ZM12 57C12 57.7956 12.3161 58.5587 12.8787 59.1213C13.4413 59.6839 14.2044 60 15 60H27C27.7956 60 28.5587 59.6839 29.1213 59.1213C29.6839 58.5587 30 57.7956 30 57V54H12V57Z" fill="#FFCC00"/>
</svg>
